<?xml version="1.0" standalone="no"?>
<!DOCTYPE svg PUBLIC "-//W3C//DTD SVG 20010904//EN"
 "http://www.w3.org/TR/2001/REC-SVG-20010904/DTD/svg10.dtd">
<svg version="1.0" xmlns="http://www.w3.org/2000/svg"
 width="1024.000000pt" height="1024.000000pt" viewBox="0 0 1024.000000 1024.000000"
 preserveAspectRatio="xMidYMid meet">
<metadata>
Created by potrace 1.14, written by Peter Selinger 2001-2017
</metadata>
<g transform="translate(0.000000,1024.000000) scale(0.100000,-0.100000)"
fill="#000000" stroke="none">
<path d="M0 5120 l0 -5120 5120 0 5120 0 0 5120 0 5120 -5120 0 -5120 0 0
-5120z m5745 3469 c226 -18 522 -77 758 -150 926 -288 1795 -1023 2224 -1882
380 -761 481 -1638 287 -2487 -88 -384 -248 -757 -469 -1100 -68 -104 -217
-307 -284 -385 -59 -68 -235 -248 -318 -325 l-68 -62 -3 616 -2 616 74 142
c313 600 409 1288 266 1918 -124 552 -391 1044 -783 1443 -284 291 -628 515
-1037 677 -500 198 -1134 240 -1675 110 -214 -51 -416 -126 -613 -227 -57 -29
-110 -53 -117 -53 -13 0 -38 14 -315 169 -301 170 -460 263 -460 269 0 14 188
146 318 224 331 197 710 345 1087 422 379 78 724 98 1130 65z m-3076 -769 c98
-13 160 -43 378 -182 204 -131 283 -177 478 -278 77 -40 144 -76 150 -81 6 -6
-349 -8 -892 -7 l-902 3 -57 40 c-77 55 -109 116 -108 205 2 165 139 275 379
303 67 9 505 6 574 -3z m3871 -608 c678 -499 854 -694 933 -1037 21 -89 21
-105 24 -1892 l4 -1802 -118 66 c-149 82 -443 229 -638 317 -291 132 -376 179
-516 282 -137 101 -223 188 -684 689 -561 609 -469 510 -881 950 -170 181
-330 352 -356 380 l-48 50 0 -217 0 -218 -302 -1 c-167 0 -321 -4 -343 -8 -39
-7 -37 -8 95 -50 243 -76 314 -102 427 -156 105 -50 112 -55 118 -88 4 -19 5
-391 3 -827 -2 -623 -6 -794 -15 -798 -7 -2 -13 -8 -13 -13 0 -6 5 -7 10 -4 6
3 10 1 10 -4 0 -6 -7 -11 -15 -11 -8 0 -15 -6 -15 -14 0 -14 -29 -31 -38 -21
-3 2 3 8 12 11 14 5 15 9 4 15 -10 7 -9 9 5 9 20 0 21 4 6 31 -7 15 -7 24 2
35 7 8 7 14 1 14 -5 0 -12 -7 -16 -15 -3 -8 -10 -15 -16 -15 -14 0 -13 27 1
32 7 2 4 10 -7 18 -16 14 -17 13 -11 -2 3 -10 2 -18 -4 -18 -6 0 -8 -8 -4 -19
4 -13 -2 -23 -20 -35 -15 -10 -25 -12 -25 -5 0 6 9 13 20 16 11 3 20 10 20 15
0 6 -7 7 -16 4 -8 -3 -12 -2 -9 4 3 6 -1 10 -9 10 -20 0 -30 -17 -14 -23 8 -4
7 -6 -3 -6 -9 -1 -19 6 -23 14 -3 8 -1 15 4 15 6 0 10 9 10 20 0 11 -7 20 -15
20 -8 0 -15 -4 -15 -10 0 -5 5 -10 12 -10 6 0 8 -3 5 -6 -4 -4 -13 -2 -20 4
-8 7 -17 9 -20 5 -4 -3 -7 -1 -7 5 0 7 5 12 10 12 6 0 10 7 10 15 0 8 5 15 12
15 6 0 8 3 4 7 -4 5 -13 8 -19 8 -6 0 -14 11 -18 25 l-6 25 -8 -27 c-4 -15 -4
-31 -1 -36 3 -4 -9 -6 -27 -4 -28 4 -29 6 -11 13 12 4 24 19 26 33 3 14 1 23
-3 20 -5 -3 -9 -1 -9 5 0 5 6 11 13 14 6 2 0 4 -15 3 -32 -1 -36 -11 -10 -25
13 -8 14 -12 5 -22 -9 -9 -15 -6 -24 14 -14 31 -39 45 -32 17 3 -10 -1 -21 -8
-26 -8 -5 -11 -3 -7 7 3 8 0 26 -7 39 -7 13 -11 30 -8 36 3 8 -8 14 -29 17
-30 3 -29 4 10 5 23 1 42 6 42 12 0 5 -7 7 -15 4 -8 -4 -15 -1 -15 5 0 6 8 11
17 11 15 0 14 2 -3 15 -10 8 -23 14 -29 15 -5 0 -3 -5 5 -11 11 -8 12 -12 2
-16 -6 -2 -10 -9 -6 -14 3 -5 -2 -9 -10 -9 -9 0 -17 6 -17 13 -1 6 -2 19 -3
27 0 8 3 18 9 22 5 4 0 6 -12 5 -16 -1 -19 -5 -13 -17 5 -9 3 -20 -6 -28 -12
-11 -14 -8 -14 15 0 21 -3 24 -12 15 -15 -15 -28 -15 -28 -1 0 5 5 7 10 4 6
-4 10 6 11 22 0 25 1 26 10 8 8 -17 9 -17 4 5 -2 14 -5 34 -6 45 0 14 -5 9
-15 -15 l-14 -35 3 40 c1 28 -2 39 -10 38 -7 -2 -13 2 -13 7 0 5 -5 9 -11 7
-6 -1 -14 4 -17 12 -3 9 0 11 8 6 10 -6 12 -2 7 16 -4 13 -7 30 -7 37 0 6 -5
12 -11 12 -6 0 -8 -7 -5 -16 14 -37 -20 -85 -39 -54 -3 6 1 7 9 4 25 -10 25
59 0 87 -16 18 -18 29 -4 29 6 0 10 -6 10 -14 0 -8 4 -17 9 -21 5 -3 9 10 8
30 -1 25 -7 35 -18 35 -10 0 -19 12 -23 31 -4 22 -10 30 -21 26 -8 -4 -17 -2
-20 2 -2 5 5 11 16 14 l22 6 -24 30 c-13 16 -30 30 -37 30 -7 1 -11 5 -8 10 3
5 -18 31 -47 57 -113 106 -214 164 -362 206 -79 22 -88 22 -790 26 -442 2
-714 7 -721 13 -17 14 -23 45 -12 60 8 11 9 10 4 -3 -6 -21 -2 -22 24 -8 13 7
21 7 26 -2 4 -7 3 -8 -4 -4 -7 4 -12 2 -12 -4 0 -6 -4 -9 -9 -5 -5 3 -13 0
-17 -6 -4 -8 -3 -9 5 -5 6 4 14 0 17 -8 7 -18 25 -22 21 -5 -1 6 4 14 12 17 9
3 11 0 6 -8 -5 -9 -4 -11 3 -6 7 4 12 1 12 -6 0 -8 4 -7 11 4 6 12 20 16 44
14 21 -1 36 3 39 11 3 7 20 13 38 12 18 0 27 -3 21 -6 -7 -2 -13 -9 -13 -15 0
-5 14 2 30 16 17 14 37 23 45 20 8 -4 15 -1 15 6 0 6 -4 9 -9 6 -5 -3 -11 1
-15 9 -6 17 -4 18 18 9 9 -3 16 -13 16 -22 0 -12 4 -12 21 4 15 13 23 15 26 7
3 -9 10 -9 31 0 33 14 77 53 50 44 -12 -4 -15 -2 -11 9 4 11 9 12 16 5 17 -17
27 -13 37 15 10 24 30 25 30 1 0 -7 -4 -6 -11 3 -8 12 -9 10 -4 -7 5 -17 2
-23 -9 -23 -9 0 -16 -5 -16 -11 0 -5 -3 -8 -7 -6 -5 3 -14 -1 -21 -9 -10 -11
-10 -14 1 -14 8 0 20 7 27 15 7 8 18 15 25 15 7 0 16 8 21 18 6 14 8 12 14
-13 6 -25 8 -26 9 -7 0 13 5 20 11 17 6 -3 10 1 10 10 0 9 -4 14 -9 11 -5 -3
-14 0 -20 8 -9 11 -6 12 14 8 19 -3 25 0 26 14 0 11 3 14 6 7 5 -15 33 -18 33
-4 0 8 37 24 53 22 4 -1 7 6 7 14 0 11 6 9 22 -7 20 -20 23 -21 26 -6 3 17 30
14 43 -5 3 -5 9 1 12 13 5 18 2 21 -14 17 -10 -3 -19 -1 -19 4 0 5 23 9 51 9
31 0 48 -4 44 -10 -3 -5 -1 -10 4 -10 6 0 11 5 11 10 0 6 98 10 275 10 212 0
274 3 272 12 -1 7 8 14 21 16 12 2 22 8 22 13 0 6 5 7 10 4 6 -4 7 -12 3 -18
-4 -7 0 -6 10 2 22 17 22 31 0 31 -31 0 -3 13 34 16 56 4 62 6 57 18 -2 6 -19
12 -37 13 -17 0 -26 -1 -19 -4 19 -7 14 -23 -7 -23 -13 0 -18 7 -18 25 0 19 4
24 21 22 11 -1 23 -5 26 -9 3 -3 14 1 25 9 20 15 20 15 -2 8 -14 -4 -23 -2
-23 4 0 10 21 16 42 12 4 0 4 7 1 17 -6 15 -5 15 10 3 15 -12 17 -10 18 15 0
16 3 23 6 17 7 -18 30 -16 36 2 7 17 -70 19 -1031 23 -378 1 -683 7 -697 12
-20 8 -45 37 -45 54 0 2 7 12 16 20 13 14 48 16 227 16 117 0 377 3 579 7 327
6 368 8 367 22 0 10 -2 12 -6 4 -2 -7 -15 -13 -29 -13 -17 0 -22 4 -18 15 4 8
10 15 16 15 5 0 6 -4 3 -10 -3 -5 -1 -10 4 -10 6 0 11 4 11 9 0 5 9 11 20 14
11 3 20 0 20 -6 0 -7 5 -5 10 3 5 8 10 12 10 8 0 -3 3 -13 6 -22 4 -11 0 -14
-15 -11 -12 2 -21 0 -21 -6 0 -5 11 -9 25 -9 20 0 24 4 23 25 -3 27 -3 27 -62
29 -24 1 -41 6 -44 15 -3 10 2 13 22 9 17 -4 26 -1 26 8 0 7 10 14 23 16 17 2
21 9 19 27 -1 14 1 21 5 17 4 -4 12 7 18 25 16 46 31 46 44 2 l11 -38 -4 36
c-3 27 1 43 15 58 24 25 64 29 55 5 -4 -10 -2 -14 6 -11 7 2 12 10 10 16 -1 7
10 11 33 9 19 -1 37 1 41 5 4 4 -38 7 -94 7 -94 0 -102 -1 -102 -19 0 -25 -18
-37 -33 -22 -9 9 -8 11 6 6 13 -6 17 -2 17 14 0 21 0 21 -397 21 -219 0 -524
2 -678 3 -276 3 -282 4 -325 28 -57 31 -94 95 -86 153 11 89 111 180 246 224
l85 27 510 0 c504 0 511 0 600 -24 94 -24 250 -83 338 -127 29 -15 46 -20 40
-13 -7 7 -13 20 -13 28 0 11 5 9 16 -7 19 -27 34 -28 34 -2 0 11 4 20 9 20 5
0 12 11 15 25 4 17 11 23 23 18 11 -4 14 -3 9 5 -5 8 -1 10 10 5 14 -5 16 -2
12 20 -3 15 -1 27 3 27 5 0 9 -7 9 -15 0 -13 4 -14 22 -4 22 12 22 12 3 20
-11 4 -14 8 -7 8 7 1 20 8 28 16 18 17 34 20 34 5 0 -5 -5 -10 -11 -10 -6 0
-4 -7 5 -15 8 -8 16 -15 18 -15 2 0 3 26 3 58 0 51 2 57 20 54 17 -2 18 -1 5
8 -37 27 -156 82 -225 105 -171 55 -199 57 -898 64 -560 5 -649 8 -657 21 -5
8 -10 12 -10 7 0 -25 -119 75 -124 105 -1 7 -5 19 -9 26 -9 13 2 16 19 4 6 -4
10 -16 8 -27 -3 -20 -2 -20 14 1 10 11 23 19 30 16 6 -2 15 5 19 15 7 19 22
33 37 33 5 0 2 -8 -5 -17 -12 -15 -12 -16 3 -10 11 4 18 2 18 -6 0 -8 3 -9 8
-1 4 6 14 14 22 17 10 4 8 6 -6 6 -16 1 -23 9 -26 30 -2 17 -1 28 3 25 4 -2 9
2 12 8 2 8 8 9 13 4 5 -5 4 -11 -3 -13 -7 -3 -13 -9 -13 -15 0 -6 7 -8 15 -4
8 3 15 1 15 -4 0 -5 -8 -11 -18 -13 -9 -3 1 -5 22 -6 37 -1 38 0 20 14 -10 8
-14 15 -7 15 7 0 10 7 7 15 -4 8 -1 15 6 15 8 0 11 9 8 25 -3 13 -1 22 4 19 5
-3 8 -20 6 -37 -2 -24 1 -33 15 -35 11 -2 17 3 17 14 0 14 3 15 12 6 17 -17
28 -15 28 7 0 33 11 50 27 44 10 -4 14 -2 10 4 -4 6 0 14 9 17 8 3 12 10 9 16
-3 5 -2 10 4 10 5 0 11 -4 13 -9 2 -5 8 -3 15 4 8 9 6 22 -8 56 -11 24 -23 46
-27 49 -4 3 -8 13 -10 23 -3 16 12 17 185 18 459 3 688 -2 751 -17 105 -23
218 -90 320 -187 23 -23 42 -37 42 -32 0 6 4 4 9 -4 6 -9 11 -10 15 -2 4 6 3
11 -3 11 -6 0 -8 7 -4 15 5 13 8 13 20 -5 8 -11 20 -20 26 -19 9 0 9 2 0 6
-15 6 -17 33 -3 33 6 0 10 -4 10 -9 0 -5 9 -11 20 -14 11 -3 18 -1 15 3 -8 12
6 41 16 34 5 -3 6 2 2 11 -3 10 0 21 8 26 19 12 32 11 24 -1 -3 -6 1 -7 9 -4
23 9 19 23 -9 34 -36 14 -31 21 7 8 26 -9 33 -8 45 7 12 17 18 14 14 -7 0 -5
5 -8 13 -8 9 0 13 10 12 31 -1 24 4 33 22 40 19 7 24 5 32 -14 7 -17 9 -18 9
-4 1 9 6 17 12 17 6 0 9 -7 6 -15 -4 -8 -2 -17 3 -20 5 -3 11 4 15 15 3 11 11
20 16 20 5 0 9 6 9 14 0 8 7 17 16 20 8 3 12 2 9 -4 -3 -6 1 -10 9 -10 8 0 18
5 22 12 4 7 3 8 -4 4 -7 -4 -12 -2 -12 3 0 6 6 11 14 11 8 0 17 6 20 13 4 6 4
2 2 -9 -4 -25 19 -27 45 -5 19 15 14 45 -5 34 -6 -3 -7 -2 -3 2 4 5 19 11 32
12 19 3 25 -1 25 -14 0 -15 2 -16 10 -3 8 13 13 13 31 2 17 -11 20 -11 13 0
-5 7 -7 21 -6 31 2 11 -3 17 -15 17 -13 0 -14 3 -6 8 14 9 -206 81 -327 108
-223 48 -203 47 -1210 53 l-955 6 -42 22 c-63 34 -119 103 -84 103 5 0 8 8 7
18 0 9 5 16 12 14 10 -2 12 4 7 20 -5 20 -4 20 9 -3 9 -15 23 -29 31 -33 9 -3
13 -2 10 4 -4 6 9 10 31 10 21 0 34 3 31 7 -4 3 1 12 11 19 21 16 36 18 26 3
-4 -8 1 -9 16 -4 15 5 20 4 16 -4 -9 -15 -4 -14 44 5 22 9 40 20 40 25 0 5 7
6 15 3 8 -4 15 -1 15 5 0 16 28 2 34 -17 3 -10 4 -3 2 15 -1 18 1 30 6 27 4
-3 8 -13 8 -22 0 -13 2 -13 15 4 18 23 19 35 3 31 -6 -1 -13 5 -15 14 -2 9 3
16 11 16 8 0 13 -4 10 -8 -2 -4 1 -9 8 -11 8 -3 9 -11 3 -24 -4 -10 -9 -22 -9
-26 -1 -3 -4 -10 -8 -14 -5 -4 -8 -12 -8 -18 0 -6 9 3 20 19 11 17 20 40 20
52 0 16 4 21 15 17 8 -4 23 -3 33 1 9 5 28 7 41 6 13 -2 21 1 18 6 -3 4 13 9
36 10 25 1 46 8 53 18 8 11 13 12 16 4 3 -9 12 -8 37 4 19 9 37 14 42 11 5 -3
12 1 15 9 4 11 14 13 39 7 27 -6 38 -4 51 11 9 11 27 18 38 18 17 -1 18 -2 4
-6 -10 -2 -18 -9 -18 -14 0 -12 17 -12 25 1 3 6 14 10 24 10 10 0 26 9 36 20
10 11 31 20 47 20 16 0 31 6 34 15 10 24 26 17 19 -7 -5 -17 -4 -19 3 -9 8 11
11 10 14 -5 2 -11 8 0 14 28 l11 46 -31 -4 c-25 -2 -28 -1 -13 7 9 6 21 8 26
5 5 -3 11 1 15 9 7 20 45 19 70 -2 17 -15 18 -15 8 -2 -10 14 -10 18 3 23 8 3
15 12 15 21 0 8 7 15 15 15 8 0 12 6 9 14 -7 19 16 32 28 15 7 -11 8 -9 4 5
-5 14 -2 17 11 12 10 -4 14 -4 10 0 -4 4 -2 13 3 19 8 9 6 14 -4 18 -9 4 -18
1 -22 -5 -4 -7 -3 -8 4 -4 7 4 12 2 12 -3 0 -6 -2 -11 -4 -11 -2 0 -12 -3 -20
-6 -12 -5 -15 -2 -10 10 4 9 1 16 -6 16 -8 0 -10 -8 -7 -22 6 -22 6 -22 -8 -4
-11 15 -12 22 -4 27 7 4 9 14 6 23 -4 10 -1 19 8 22 8 4 12 10 9 15 -3 5 0 9
5 9 17 0 13 -18 -6 -29 -11 -6 -13 -11 -5 -11 8 0 10 -5 6 -12 -5 -8 -2 -9 12
-4 10 4 25 9 32 10 13 2 13 4 5 34 -4 16 -18 20 -99 25 -118 8 -203 41 -204
80 0 5 368 6 818 4 706 -3 831 -6 917 -20 302 -51 586 -173 815 -350 211 -163
435 -407 1371 -1492 312 -362 472 -545 475 -542 1 1 -1 191 -6 422 -13 640
-21 2325 -11 2325 5 0 82 -53 171 -118z m-4260 -352 c0 -5 -5 -10 -11 -10 -5
0 -7 5 -4 10 3 6 8 10 11 10 2 0 4 -4 4 -10z m-85 -62 c6 -13 16 -22 23 -21 6
2 9 -4 6 -12 -4 -8 -9 -15 -13 -15 -9 1 -42 70 -33 70 4 0 12 -10 17 -22z
m-15 -23 c11 -13 10 -14 -4 -9 -9 3 -16 10 -16 15 0 13 6 11 20 -6z m-55 -25
c3 -5 1 -10 -4 -10 -6 0 -11 5 -11 10 0 6 2 10 4 10 3 0 8 -4 11 -10z m71 -24
c1 -9 -7 -13 -21 -12 -13 0 -21 4 -18 9 2 4 -1 7 -6 7 -6 0 -11 -4 -11 -10 0
-5 -9 -10 -20 -10 -11 0 -20 5 -20 11 0 5 5 7 10 4 6 -4 16 -2 23 3 13 11 49
20 56 15 3 -2 6 -10 7 -17z m-136 -86 c0 -13 -11 -13 -30 0 -12 8 -11 10 8 10
12 0 22 -4 22 -10z m40 -6 c0 -14 -3 -14 -15 -4 -8 7 -15 14 -15 16 0 2 7 4
15 4 8 0 15 -7 15 -16z m-226 -20 c3 -8 2 -12 -4 -9 -6 3 -10 10 -10 16 0 14
7 11 14 -7z m166 12 c0 -11 -19 -15 -25 -6 -3 5 1 10 9 10 9 0 16 -2 16 -4z
m-66 -15 c7 -11 -32 -46 -41 -37 -5 4 0 12 10 17 9 6 15 14 12 20 -4 5 -2 9 4
9 5 0 12 -4 15 -9z m-255 -54 c8 -10 7 -14 -2 -14 -8 0 -14 6 -14 14 0 7 1 13
2 13 2 0 8 -6 14 -13z m1 -31 c0 -2 -7 -6 -15 -10 -8 -3 -15 -1 -15 4 0 6 7
10 15 10 8 0 15 -2 15 -4z m-70 -16 c0 -5 -5 -10 -11 -10 -5 0 -7 5 -4 10 3 6
8 10 11 10 2 0 4 -4 4 -10z m-315 -80 c3 -6 -1 -7 -10 -4 -11 4 -14 2 -9 -9 3
-10 -2 -20 -15 -27 -12 -6 -21 -7 -21 -1 0 5 7 11 15 15 8 3 15 9 14 13 -4 23
14 32 26 13z m-95 -20 c-8 -5 -19 -10 -25 -10 -5 0 -3 5 5 10 8 5 20 10 25 10
6 0 3 -5 -5 -10z m2407 -384 c0 -8 -8 -11 -21 -8 -19 5 -19 6 0 13 10 4 19 8
20 8 0 1 1 -5 1 -13z m28 -26 c3 -5 -1 -10 -10 -10 -9 0 -13 5 -10 10 3 6 8
10 10 10 2 0 7 -4 10 -10z m-112 -27 c-7 -2 -19 -2 -25 0 -7 3 -2 5 12 5 14 0
19 -2 13 -5z m-133 -63 c0 -5 -2 -10 -4 -10 -3 0 -8 5 -11 10 -3 6 -1 10 4 10
6 0 11 -4 11 -10z m-145 -68 c-3 -3 -11 0 -18 7 -9 10 -8 11 6 5 10 -3 15 -9
12 -12z m-1548 -64 c-3 -8 -6 -5 -6 6 -1 11 2 17 5 13 3 -3 4 -12 1 -19z
m1467 -19 c-7 -13 -34 -11 -34 2 0 5 5 7 12 3 8 -5 9 -2 4 11 -5 15 -4 16 9 5
8 -7 12 -16 9 -21z m-1647 -79 c-1 -11 -7 -20 -14 -20 -11 0 -11 4 -1 20 7 11
14 20 15 20 1 0 1 -9 0 -20z m-22 -60 c8 -13 -5 -13 -25 0 -13 8 -13 10 2 10
9 0 20 -4 23 -10z m1800 -370 c3 -5 2 -10 -4 -10 -5 0 -13 5 -16 10 -3 6 -2
10 4 10 5 0 13 -4 16 -10z m-178 -202 c-3 -7 -5 -2 -5 12 0 14 2 19 5 13 2 -7
2 -19 0 -25z m-397 -348 c0 -5 -4 -10 -9 -10 -6 0 -13 5 -16 10 -3 6 1 10 9
10 9 0 16 -4 16 -10z m0 -27 c0 -5 -4 -15 -10 -23 -6 -9 -5 -17 2 -21 6 -4 7
-9 0 -13 -5 -3 -15 1 -22 9 -9 10 -9 15 -1 15 6 0 11 9 11 20 0 11 5 20 10 20
6 0 10 -3 10 -7z m-47 -57 c4 -10 1 -13 -8 -9 -8 3 -12 9 -9 14 7 12 11 11 17
-5z m-66 -98 c-3 -8 -6 -5 -6 6 -1 11 2 17 5 13 3 -3 4 -12 1 -19z m600 -164
c-3 -3 -12 -4 -19 -1 -8 3 -5 6 6 6 11 1 17 -2 13 -5z m-129 -129 c-3 -3 -9 2
-12 12 -6 14 -5 15 5 6 7 -7 10 -15 7 -18z m-913 -104 c3 -5 2 -12 -3 -15 -5
-3 -9 1 -9 9 0 17 3 19 12 6z m-215 -91 c0 -5 -2 -10 -4 -10 -3 0 -8 5 -11 10
-3 6 -1 10 4 10 6 0 11 -4 11 -10z m95 -10 c3 -5 -1 -10 -9 -10 -9 0 -16 5
-16 10 0 6 4 10 9 10 6 0 13 -4 16 -10z m-55 -4 c0 -2 -7 -7 -16 -10 -8 -3
-12 -2 -9 4 6 10 25 14 25 6z m-113 -32 c2 -6 -9 -10 -24 -9 -14 0 -28 5 -30
10 -2 6 9 10 24 9 15 0 28 -5 30 -10z m-303 -34 c-6 -5 -24 21 -24 34 0 6 6 1
14 -10 8 -10 12 -21 10 -24z m188 10 c6 0 9 -3 6 -6 -9 -8 -48 14 -48 27 0 6
7 3 16 -5 8 -9 20 -16 26 -16z m39 3 c-12 -20 -14 -14 -5 12 4 9 9 14 11 11 3
-2 0 -13 -6 -23z m-261 -35 c0 -15 -15 -8 -28 12 -12 19 -11 20 8 8 11 -7 20
-16 20 -20z m178 7 c-3 -3 -9 2 -12 12 -6 14 -5 15 5 6 7 -7 10 -15 7 -18z
m-208 -12 c0 -3 -6 -3 -14 0 -7 3 -18 1 -24 -5 -6 -6 -12 -6 -17 3 -5 7 -4 10
3 5 6 -3 13 -2 17 3 5 10 35 4 35 -6z m97 -6 c2 -19 2 -19 -12 -1 -13 18 -14
18 -21 1 -5 -15 -9 -16 -15 -5 -5 8 -2 15 8 19 29 10 39 6 40 -14z m1085 -288
c29 -6 87 -27 128 -47 61 -29 94 -55 176 -138 56 -56 113 -110 128 -119 14
-10 26 -24 26 -31 0 -8 3 -13 8 -12 4 2 23 -7 42 -19 19 -13 44 -28 55 -35 11
-7 22 -16 25 -19 3 -4 43 -25 89 -48 53 -27 80 -46 74 -52 -6 -6 -318 -9 -844
-7 -933 3 -872 -2 -953 76 -53 51 -76 104 -76 177 0 75 24 128 78 177 69 62
139 88 272 101 94 10 724 6 772 -4z m903 -69 c3 -5 -1 -10 -10 -10 -9 0 -13 5
-10 10 3 6 8 10 10 10 2 0 7 -4 10 -10z m-15 -60 c0 -5 -2 -10 -4 -10 -3 0 -8
5 -11 10 -3 6 -1 10 4 10 6 0 11 -4 11 -10z m40 -14 c0 -3 -4 -8 -10 -11 -5
-3 -10 -1 -10 4 0 6 5 11 10 11 6 0 10 -2 10 -4z m0 -36 c0 -5 -2 -10 -4 -10
-3 0 -8 5 -11 10 -3 6 -1 10 4 10 6 0 11 -4 11 -10z m-6 -36 c3 -8 2 -12 -4
-9 -6 3 -10 10 -10 16 0 14 7 11 14 -7z m33 -64 c3 -19 2 -19 -17 -3 -14 12
-16 19 -8 24 15 10 21 4 25 -21z m-43 -25 c-4 -8 -8 -15 -10 -15 -2 0 -4 7 -4
15 0 8 4 15 10 15 5 0 7 -7 4 -15z m111 -63 c3 -8 0 -21 -5 -30 -9 -14 -10
-12 -4 7 5 18 3 23 -7 19 -8 -3 -19 0 -26 7 -9 10 -7 13 13 11 13 0 26 -7 29
-14z m-60 -24 c-6 -17 -4 -20 9 -15 9 4 16 2 16 -2 0 -5 -6 -11 -14 -14 -17
-7 -28 16 -20 38 9 23 16 18 9 -7z m62 -43 c0 -8 -4 -15 -9 -15 -4 0 -8 4 -8
10 0 5 -8 7 -17 4 -15 -5 -16 -4 -3 5 21 15 37 14 37 -4z m133 -145 c0 -5 -4
-10 -10 -10 -5 0 -10 5 -10 10 0 6 5 10 10 10 6 0 10 -4 10 -10z m80 -120 c0
-5 -10 -10 -22 -10 -19 0 -20 2 -8 10 19 13 30 13 30 0z m50 6 c0 -3 -4 -8
-10 -11 -5 -3 -10 -1 -10 4 0 6 5 11 10 11 6 0 10 -2 10 -4z m144 -104 c3 -5
-1 -9 -9 -9 -8 0 -12 4 -9 9 3 4 7 8 9 8 2 0 6 -4 9 -8z m-1634 -54 c0 -10 2
-10 9 0 6 11 10 10 15 -5 7 -17 8 -17 17 -1 9 16 44 17 423 18 l414 0 44 -33
c24 -19 85 -61 135 -95 456 -307 890 -485 1374 -564 184 -30 616 -33 814 -5
337 48 615 128 914 264 l125 57 325 -164 c178 -91 334 -173 346 -182 20 -15
22 -26 21 -85 l-1 -67 -115 -73 c-471 -298 -1051 -487 -1665 -543 -152 -14
-493 -14 -650 0 -660 57 -1322 318 -1875 739 -104 79 -300 254 -396 353 -181
187 -336 381 -312 391 23 10 38 7 38 -5z"/>
<path d="M2306 6883 c-6 -14 -5 -15 5 -6 7 7 10 15 7 18 -3 3 -9 -2 -12 -12z"/>
<path d="M2340 6837 c0 -10 8 -17 18 -17 9 0 13 4 7 8 -5 4 -13 11 -17 16 -5
5 -8 2 -8 -7z"/>
<path d="M2220 6700 c-8 -5 -10 -10 -5 -10 6 0 17 5 25 10 8 5 11 10 5 10 -5
0 -17 -5 -25 -10z"/>
<path d="M2123 6667 c1 -15 5 -27 10 -27 10 0 9 22 -2 39 -7 10 -9 7 -8 -12z"/>
<path d="M2147 6671 c5 -19 53 -36 53 -20 0 5 -7 9 -15 9 -9 0 -18 7 -21 15
-9 22 -23 18 -17 -4z"/>
<path d="M2010 6570 c0 -5 5 -10 10 -10 6 0 10 5 10 10 0 6 -4 10 -10 10 -5 0
-10 -4 -10 -10z"/>
<path d="M1485 6440 c-3 -5 2 -10 12 -11 14 0 14 -2 -4 -9 -13 -5 -23 -14 -23
-20 0 -14 9 -13 27 6 12 11 18 12 23 4 4 -7 10 -8 13 -4 3 5 -6 17 -18 27 -15
10 -26 13 -30 7z"/>
<path d="M1350 6376 c0 -9 5 -16 10 -16 6 0 10 4 10 9 0 6 -4 13 -10 16 -5 3
-10 -1 -10 -9z"/>
<path d="M1201 6358 c-1 -13 -9 -18 -30 -18 -16 0 -31 -6 -35 -15 -3 -8 -1
-15 4 -15 6 0 10 4 10 8 0 5 7 9 15 9 8 0 15 -5 15 -11 0 -6 7 0 16 12 8 12
13 28 11 35 -3 7 -6 5 -6 -5z"/>
<path d="M1285 6350 c3 -5 11 -10 16 -10 6 0 7 5 4 10 -3 6 -11 10 -16 10 -6
0 -7 -4 -4 -10z"/>
<path d="M1064 6321 c2 -14 9 -26 15 -26 7 0 19 -9 27 -19 8 -11 14 -16 14
-11 0 5 -10 19 -22 32 -12 13 -16 23 -10 23 6 0 9 6 6 13 -9 25 -32 15 -30
-12z"/>
<path d="M1230 6340 c-9 -6 -10 -10 -3 -10 6 0 15 5 18 10 8 12 4 12 -15 0z"/>
<path d="M3633 5933 c9 -2 23 -2 30 0 6 3 -1 5 -18 5 -16 0 -22 -2 -12 -5z"/>
<path d="M3475 5880 c-3 -5 -1 -10 4 -10 6 0 11 5 11 10 0 6 -2 10 -4 10 -3 0
-8 -4 -11 -10z"/>
<path d="M3580 5886 c0 -2 7 -7 16 -10 8 -3 12 -2 9 4 -6 10 -25 14 -25 6z"/>
<path d="M3357 5873 c-4 -3 -7 -11 -7 -17 0 -6 5 -4 10 4 8 12 10 12 10 -5 0
-17 2 -17 10 -5 5 8 10 18 10 23 0 9 -24 9 -33 0z"/>
<path d="M3410 5836 c0 -9 5 -16 10 -16 6 0 10 4 10 9 0 6 -4 13 -10 16 -5 3
-10 -1 -10 -9z"/>
<path d="M3305 5799 c-4 -6 -5 -12 -2 -15 2 -3 7 2 10 11 7 17 1 20 -8 4z"/>
<path d="M1810 5745 c0 -15 6 -25 14 -25 19 0 28 14 20 34 -10 25 -34 19 -34
-9z m30 -5 c0 -5 -4 -10 -10 -10 -5 0 -10 5 -10 10 0 6 5 10 10 10 6 0 10 -4
10 -10z"/>
<path d="M3244 5758 c-3 -4 2 -8 10 -8 8 0 17 4 20 8 3 5 -2 9 -10 9 -8 0 -17
-4 -20 -9z"/>
<path d="M1782 5710 c0 -14 2 -19 5 -12 2 6 2 18 0 25 -3 6 -5 1 -5 -13z"/>
<path d="M1800 5700 c0 -5 5 -10 10 -10 6 0 10 5 10 10 0 6 -4 10 -10 10 -5 0
-10 -4 -10 -10z"/>
<path d="M1630 5610 c-8 -5 -10 -10 -5 -10 6 0 17 5 25 10 8 5 11 10 5 10 -5
0 -17 -5 -25 -10z"/>
<path d="M1517 5571 c-4 -17 -3 -21 5 -13 5 5 8 16 6 23 -3 8 -7 3 -11 -10z"/>
<path d="M1540 5570 c0 -5 5 -10 10 -10 6 0 10 5 10 10 0 6 -4 10 -10 10 -5 0
-10 -4 -10 -10z"/>
<path d="M3395 5260 c-3 -5 1 -10 10 -10 9 0 13 5 10 10 -3 6 -8 10 -10 10 -2
0 -7 -4 -10 -10z"/>
<path d="M3385 5230 c3 -5 8 -10 11 -10 2 0 4 5 4 10 0 6 -5 10 -11 10 -5 0
-7 -4 -4 -10z"/>
<path d="M3370 5200 c0 -5 5 -10 10 -10 6 0 10 5 10 10 0 6 -4 10 -10 10 -5 0
-10 -4 -10 -10z"/>
<path d="M3320 5129 c0 -6 -9 -9 -20 -6 -11 3 -20 1 -20 -4 0 -15 36 -10 50 6
9 10 9 15 1 15 -6 0 -11 -5 -11 -11z"/>
<path d="M3256 5121 c-4 -7 -5 -15 -2 -18 9 -9 19 4 14 18 -4 11 -6 11 -12 0z"/>
<path d="M3205 5080 c3 -5 20 -10 36 -10 18 0 28 4 24 10 -3 6 -20 10 -36 10
-18 0 -28 -4 -24 -10z"/>
<path d="M3195 5051 c-3 -5 0 -13 6 -17 7 -4 9 -3 5 4 -3 5 0 13 6 15 9 4 10
6 1 6 -6 1 -14 -3 -18 -8z"/>
<path d="M3225 5030 c-3 -6 1 -7 9 -4 18 7 21 14 7 14 -6 0 -13 -4 -16 -10z"/>
<path d="M3160 5006 c7 -7 13 -7 20 0 6 6 3 10 -10 10 -13 0 -16 -4 -10 -10z"/>
<path d="M3028 4753 c6 -2 18 -2 25 0 6 3 1 5 -13 5 -14 0 -19 -2 -12 -5z"/>
<path d="M2870 4725 c-7 -8 -9 -15 -6 -15 4 0 14 7 22 15 9 8 11 15 6 15 -5 0
-15 -7 -22 -15z"/>
<path d="M2895 4690 c3 -5 8 -10 11 -10 2 0 4 5 4 10 0 6 -5 10 -11 10 -5 0
-7 -4 -4 -10z"/>
<path d="M2810 4650 c0 -11 4 -20 9 -20 5 0 7 9 4 20 -3 11 -7 20 -9 20 -2 0
-4 -9 -4 -20z"/>
<path d="M2755 4580 c-3 -5 1 -10 9 -10 9 0 16 5 16 10 0 6 -4 10 -9 10 -6 0
-13 -4 -16 -10z"/>
<path d="M3338 4373 c6 -2 18 -2 25 0 6 3 1 5 -13 5 -14 0 -19 -2 -12 -5z"/>
<path d="M3272 4298 c2 -7 -3 -12 -10 -10 -8 1 -11 -2 -7 -8 3 -5 10 -10 15
-10 12 0 20 29 9 35 -5 4 -8 1 -7 -7z"/>
<path d="M2475 4141 c-6 -11 13 -26 22 -17 4 3 0 6 -8 6 -11 0 -11 2 1 10 9 6
10 10 3 10 -6 0 -14 -4 -18 -9z"/>
<path d="M2371 4094 c0 -11 3 -14 6 -6 3 7 2 16 -1 19 -3 4 -6 -2 -5 -13z"/>
<path d="M2259 4059 c-6 -13 -7 -19 -1 -15 6 3 12 1 14 -5 2 -6 9 0 16 15 10
21 9 26 -3 26 -8 0 -19 -10 -26 -21z"/>
<path d="M3670 3510 c0 -5 7 -7 15 -4 8 4 15 8 15 10 0 2 -7 4 -15 4 -8 0 -15
-4 -15 -10z"/>
<path d="M3710 3429 c0 -5 5 -7 10 -4 6 3 10 8 10 11 0 2 -4 4 -10 4 -5 0 -10
-5 -10 -11z"/>
<path d="M3757 3333 c-4 -3 -7 -11 -7 -17 0 -6 5 -5 12 2 6 6 9 14 7 17 -3 3
-9 2 -12 -2z"/>
<path d="M3786 3302 c-2 -4 4 -8 14 -8 10 0 16 4 14 8 -3 4 -9 8 -14 8 -5 0
-11 -4 -14 -8z"/>
<path d="M3821 3261 c-8 -6 -9 -11 -3 -15 6 -3 14 -1 17 5 9 14 2 20 -14 10z"/>
<path d="M3980 3110 c0 -5 5 -10 11 -10 5 0 7 5 4 10 -3 6 -8 10 -11 10 -2 0
-4 -4 -4 -10z"/>
<path d="M3916 3092 c-2 -4 0 -14 6 -22 8 -12 9 -12 5 2 -3 9 -1 19 6 22 9 3
9 5 0 5 -6 1 -14 -3 -17 -7z"/>
<path d="M3940 3070 c0 -5 5 -10 10 -10 6 0 10 5 10 10 0 6 -4 10 -10 10 -5 0
-10 -4 -10 -10z"/>
<path d="M4072 2954 c-11 -12 -7 -14 25 -13 21 0 31 3 23 6 -8 3 -19 9 -25 13
-5 5 -16 2 -23 -6z"/>
<path d="M4110 2914 c0 -7 8 -10 20 -7 11 3 20 8 20 12 0 4 -9 7 -20 7 -11 0
-20 -6 -20 -12z"/>
<path d="M3225 3250 c3 -5 8 -10 11 -10 2 0 4 5 4 10 0 6 -5 10 -11 10 -5 0
-7 -4 -4 -10z"/>
</g>
</svg>
